<svg width="200" height="200" viewBox="0 0 200 200" fill="none" xmlns="http://www.w3.org/2000/svg">
<path d="M152.31 144.596C144.881 144.516 138.829 142.799 134.157 139.445C129.485 136.012 126.383 131.46 124.851 125.79C125.693 124.273 127.034 123.075 128.872 122.197C130.787 121.239 132.587 120.839 134.272 120.999C135.651 125.311 137.949 128.585 141.166 130.821C144.383 133.057 148.289 134.135 152.885 134.055C157.787 133.975 161.732 132.658 164.719 130.102C167.706 127.467 169.2 123.914 169.2 119.442C169.2 112.654 165.791 108.262 158.974 106.266L143.693 101.834C138.332 100.237 134.119 97.5221 131.055 93.6891C127.991 89.7763 126.459 85.1448 126.459 79.7946C126.459 75.0034 127.608 70.7312 129.906 66.9781C132.28 63.2249 135.497 60.3103 139.557 58.2341C143.693 56.078 148.404 55 153.689 55C159.587 55 164.872 56.3176 169.545 58.9528C174.294 61.5081 177.626 64.9019 179.54 69.1341C178.851 70.4118 177.702 71.6894 176.094 72.9671C174.562 74.1649 172.877 75.0832 171.038 75.722C167.285 68.9345 161.387 65.5407 153.344 65.5407C148.595 65.5407 144.727 66.8184 141.74 69.3737C138.753 71.8491 137.259 75.0832 137.259 79.0759C137.259 85.4642 141.204 89.8162 149.093 92.132L162.651 95.965C168.089 97.4822 172.34 100.317 175.404 104.469C178.468 108.542 180 113.493 180 119.322C180 124.433 178.774 128.905 176.323 132.738C173.949 136.571 170.655 139.525 166.442 141.601C162.306 143.598 157.596 144.596 152.31 144.596Z" fill="#FF495C"/>
<path d="M70.5263 134.431H77.1158C79.1434 128.363 81.3774 122.217 83.818 115.991C86.2585 109.727 88.7366 103.639 91.2523 97.7294C93.7679 91.8194 96.246 86.2049 98.6866 80.8859C101.127 75.5275 103.361 70.701 105.389 66.4063H73.3987V73.3211H62.5851V55H118.624V63.865C116.146 68.987 113.555 74.4243 110.852 80.1767C108.148 85.8897 105.464 91.7603 102.798 97.7885C100.17 103.817 97.6165 109.924 95.1384 116.11C92.6603 122.295 90.4075 128.402 88.3799 134.431H95.4763V144.596H70.5263V134.431Z" fill="#00916E"/>
<path d="M28.8951 135.071H37.0674V71.0487L20 80.6895V68.6241L43.4607 55H47.9083V135.071H56.1918V145H28.8951V135.071Z" fill="#35A7FF"/>
</svg>
