<svg width="423" height="200" viewBox="0 0 423 200" xmlns="http://www.w3.org/2000/svg">
  <path
    d="M182.31 144.877C174.881 144.797 168.829 143.081 164.157 139.727C159.485 136.293 156.383 131.741 154.851 126.072C155.693 124.555 157.034 123.357 158.872 122.478C160.787 121.52 162.587 121.121 164.272 121.281C165.651 125.593 167.949 128.867 171.166 131.103C174.383 133.338 178.289 134.416 182.885 134.337C187.787 134.257 191.732 132.939 194.719 130.384C197.706 127.749 199.2 124.195 199.2 119.723C199.2 112.936 195.791 108.544 188.974 106.548L173.693 102.116C168.332 100.519 164.119 97.8035 161.055 93.9706C157.991 90.0577 156.459 85.4262 156.459 80.076C156.459 75.2848 157.608 71.0126 159.906 67.2595C162.28 63.5064 165.497 60.5917 169.557 58.5155C173.693 56.3595 178.404 55.2814 183.689 55.2814C189.587 55.2814 194.872 56.599 199.545 59.2342C204.294 61.7895 207.626 65.1833 209.54 69.4155C208.851 70.6932 207.702 71.9709 206.094 73.2485C204.562 74.4463 202.877 75.3646 201.038 76.0035C197.285 69.2159 191.387 65.8221 183.344 65.8221C178.595 65.8221 174.727 67.0998 171.74 69.6551C168.753 72.1306 167.259 75.3646 167.259 79.3573C167.259 85.7456 171.204 90.0977 179.093 92.4134L192.651 96.2464C198.089 97.7636 202.34 100.598 205.404 104.751C208.468 108.823 210 113.774 210 119.604C210 124.714 208.774 129.186 206.323 133.019C203.949 136.852 200.655 139.807 196.442 141.883C192.306 143.879 187.596 144.877 182.31 144.877Z"
    fill="#FF495C" />
  <path
    d="M100.526 134.712H107.116C109.143 128.644 111.377 122.498 113.818 116.273C116.259 110.008 118.737 103.921 121.252 98.0109C123.768 92.1009 126.246 86.4863 128.687 81.1673C131.127 75.8089 133.361 70.9824 135.389 66.6878H103.399V73.6025H92.5851V55.2814H148.624V64.1465C146.146 69.2685 143.555 74.7057 140.852 80.4581C138.148 86.1711 135.464 92.0418 132.798 98.07C130.17 104.098 127.616 110.205 125.138 116.391C122.66 122.577 120.407 128.684 118.38 134.712H125.476V144.877H100.526V134.712Z"
    fill="#00916E" />
  <path
    d="M58.8951 135.352H67.0674V71.3302L50 80.971V68.9056L73.4607 55.2814H77.9083V135.352H86.1918V145.281H58.8951V135.352Z"
    fill="#35A7FF" />

  <path
    d="M216.656 144.371C215.002 143.764 213.573 142.816 212.369 141.527C211.166 140.237 210.376 138.682 210 136.862C211.354 135.572 212.933 133.941 214.739 131.969C216.544 129.997 218.311 127.646 220.041 124.915C221.771 122.108 223.2 118.96 224.328 115.471C225.532 111.982 226.134 108.075 226.134 103.752V89.9843C226.81 89.7568 227.6 89.5671 228.503 89.4154C229.405 89.2637 230.346 89.1879 231.323 89.1879C233.053 89.1879 234.746 89.4534 236.4 89.9843V116.268C236.4 122.867 237.453 127.683 239.559 130.718C241.665 133.676 244.975 135.155 249.488 135.155C260.243 135.155 265.621 127.228 265.621 111.375V89.9843C266.223 89.7568 266.975 89.5671 267.878 89.4154C268.78 89.2637 269.72 89.1879 270.698 89.1879C272.503 89.1879 274.233 89.4534 275.888 89.9843V122.753C275.888 126.773 276.49 129.921 277.693 132.197C278.972 134.396 281.078 135.496 284.011 135.496C285.29 135.496 286.155 136.027 286.606 137.089C287.057 138.151 287.283 139.289 287.283 140.503C287.283 141.716 286.945 142.816 286.268 143.802C285.666 144.788 284.651 145.281 283.221 145.281C276.001 145.281 271.112 142.096 268.555 135.724C266.449 138.834 263.741 141.223 260.431 142.892C257.122 144.485 253.211 145.281 248.698 145.281C238.168 145.281 231.286 140.351 228.052 130.49C226.397 133.524 224.554 136.255 222.523 138.682C220.568 141.109 218.612 143.006 216.656 144.371Z"
    fill="#EEEEEE" />
  <path
    d="M284.031 135.496C285.611 135.496 287.303 135.003 289.108 134.017C290.914 133.031 292.606 131.514 294.185 129.466C296.066 126.887 297.42 123.929 298.247 120.591C299.15 117.254 299.714 113.878 299.939 110.465V89.9843C300.616 89.7568 301.406 89.5671 302.309 89.4154C303.211 89.2637 304.151 89.1879 305.129 89.1879C306.859 89.1879 308.551 89.4534 310.206 89.9843V122.753C310.206 126.773 310.808 129.921 312.011 132.197C313.29 134.396 315.396 135.496 318.329 135.496C319.608 135.496 320.473 136.027 320.924 137.089C321.376 138.151 321.601 139.289 321.601 140.503C321.601 141.716 321.263 142.816 320.586 143.802C319.984 144.788 318.969 145.281 317.54 145.281C309.717 145.281 304.64 141.565 302.309 134.131C301.256 135.876 300.127 137.355 298.924 138.568C296.893 140.616 294.524 142.247 291.816 143.461C289.184 144.675 286.326 145.281 283.242 145.281C282.189 145.281 281.399 144.75 280.872 143.689C280.271 142.702 279.97 141.603 279.97 140.389C279.97 139.099 280.308 137.962 280.985 136.975C281.587 135.989 282.602 135.496 284.031 135.496ZM305.355 70.7555C303.249 70.7555 301.444 69.997 299.939 68.4799C298.435 66.9628 297.683 65.1424 297.683 63.0185C297.683 60.8187 298.397 58.9982 299.827 57.557C301.331 56.04 303.174 55.2814 305.355 55.2814C307.536 55.2814 309.341 56.04 310.77 57.557C312.275 58.9982 313.027 60.8187 313.027 63.0185C313.027 65.1424 312.275 66.9628 310.77 68.4799C309.341 69.997 307.536 70.7555 305.355 70.7555Z"
    fill="#EEEEEE" />
  <path
    d="M318.297 135.496C320.177 135.496 322.321 134.927 324.728 133.79C327.21 132.652 329.617 130.718 331.948 127.987C334.28 125.256 336.198 121.577 337.702 116.95C339.206 112.247 339.959 106.369 339.959 99.3143V88.3914H331.61C331.083 87.1778 330.82 85.6607 330.82 83.8402C330.82 82.0197 331.083 80.5027 331.61 79.289H339.959V59.15C341.388 58.619 343.118 58.3535 345.148 58.3535C346.954 58.3535 348.683 58.619 350.338 59.15V79.289H367.149C367.75 80.5027 368.051 82.0197 368.051 83.8402C368.051 85.6607 367.75 87.1778 367.149 88.3914H350.338V124.118C350.338 125.939 350.489 127.721 350.789 129.466C351.166 131.211 351.842 132.69 352.82 133.903C353.798 135.041 355.302 135.61 357.333 135.61C359.364 135.61 361.169 135.079 362.749 134.017C364.403 132.879 365.795 131.78 366.923 130.718C368.126 131.628 369.217 132.766 370.195 134.131C371.173 135.496 371.774 136.862 372 138.227C371.323 139.061 370.27 140.048 368.841 141.185C367.412 142.247 365.682 143.195 363.651 144.03C361.62 144.864 359.326 145.281 356.769 145.281C352.256 145.281 348.759 144.03 346.277 141.527C343.87 139.024 342.29 135.762 341.538 131.742C338.379 136.369 334.656 139.782 330.369 141.982C326.157 144.182 321.869 145.281 317.507 145.281C316.529 145.281 315.739 144.788 315.138 143.802C314.536 142.892 314.235 141.754 314.235 140.389C314.235 138.948 314.574 137.772 315.251 136.862C315.927 135.951 316.943 135.496 318.297 135.496Z"
    fill="#EEEEEE" />
</svg>