<svg width="322" height="101" viewBox="0 0 322 101" fill="none" xmlns="http://www.w3.org/2000/svg">
<path d="M132.31 99.8773C124.881 99.7975 118.829 98.0806 114.157 94.7268C109.485 91.2931 106.383 86.7414 104.851 81.0718C105.693 79.5546 107.034 78.3567 108.872 77.4783C110.787 76.5201 112.587 76.1208 114.272 76.2805C115.651 80.5926 117.949 83.8667 121.166 86.1026C124.383 88.3385 128.289 89.4165 132.885 89.3366C137.787 89.2568 141.732 87.9392 144.719 85.3839C147.706 82.7487 149.2 79.1952 149.2 74.7234C149.2 67.9358 145.791 63.5439 138.974 61.5475L123.693 57.1157C118.332 55.5186 114.119 52.8035 111.055 48.9706C107.991 45.0577 106.459 40.4262 106.459 35.076C106.459 30.2848 107.608 26.0126 109.906 22.2595C112.28 18.5064 115.497 15.5917 119.557 13.5155C123.693 11.3595 128.404 10.2814 133.689 10.2814C139.587 10.2814 144.872 11.599 149.545 14.2342C154.294 16.7895 157.626 20.1833 159.54 24.4155C158.851 25.6932 157.702 26.9709 156.094 28.2485C154.562 29.4463 152.877 30.3646 151.038 31.0035C147.285 24.2159 141.387 20.8221 133.344 20.8221C128.595 20.8221 124.727 22.0998 121.74 24.6551C118.753 27.1306 117.259 30.3646 117.259 34.3573C117.259 40.7456 121.204 45.0977 129.093 47.4134L142.651 51.2464C148.089 52.7636 152.34 55.5984 155.404 59.7508C158.468 63.8234 160 68.7743 160 74.6036C160 79.7143 158.774 84.1861 156.323 88.019C153.949 91.852 150.655 94.8066 146.442 96.8828C142.306 98.8792 137.596 99.8773 132.31 99.8773Z" fill="#FF495C"/>
<path d="M50.5263 89.7121H57.1158C59.1434 83.6445 61.3774 77.4981 63.818 71.2728C66.2585 65.0082 68.7366 58.9209 71.2523 53.0109C73.7679 47.1009 76.246 41.4863 78.6866 36.1673C81.1271 30.8089 83.3612 25.9824 85.3887 21.6878H53.3987V28.6025H42.5851V10.2814H98.624V19.1465C96.1459 24.2685 93.5552 29.7057 90.8518 35.4581C88.1484 41.1711 85.4638 47.0418 82.798 53.07C80.1697 59.0982 77.6165 65.2052 75.1384 71.391C72.6603 77.5769 70.4075 83.6839 68.3799 89.7121H75.4763V99.8773H50.5263V89.7121Z" fill="#00916E"/>
<path d="M8.89507 90.352H17.0674V26.3302L0 35.971V23.9056L23.4607 10.2814H27.9083V90.352H36.1918V100.281H8.89507V90.352Z" fill="#35A7FF"/>
<path d="M166.656 99.3712C165.002 98.7644 163.573 97.8162 162.369 96.5267C161.166 95.2372 160.376 93.6822 160 91.8617C161.354 90.5722 162.933 88.9414 164.739 86.9692C166.544 84.997 168.311 82.6455 170.041 79.9148C171.771 77.1082 173.2 73.9603 174.328 70.4711C175.532 66.9818 176.134 63.0754 176.134 58.7517V44.9843C176.81 44.7568 177.6 44.5671 178.503 44.4154C179.405 44.2637 180.346 44.1879 181.323 44.1879C183.053 44.1879 184.746 44.4534 186.4 44.9843V71.2675C186.4 77.8668 187.453 82.6834 189.559 85.7176C191.665 88.6759 194.975 90.155 199.488 90.155C210.243 90.155 215.621 82.2283 215.621 66.375V44.9843C216.223 44.7568 216.975 44.5671 217.878 44.4154C218.78 44.2637 219.72 44.1879 220.698 44.1879C222.503 44.1879 224.233 44.4534 225.888 44.9843V77.753C225.888 81.7732 226.49 84.9211 227.693 87.1967C228.972 89.3965 231.078 90.4963 234.011 90.4963C235.29 90.4963 236.155 91.0273 236.606 92.0893C237.057 93.1512 237.283 94.289 237.283 95.5027C237.283 96.7163 236.945 97.8162 236.268 98.8023C235.666 99.7884 234.651 100.281 233.221 100.281C226.001 100.281 221.112 97.0956 218.555 90.7239C216.449 93.8339 213.741 96.2233 210.431 97.892C207.122 99.485 203.211 100.281 198.698 100.281C188.168 100.281 181.286 95.351 178.052 85.49C176.397 88.5242 174.554 91.2549 172.523 93.6822C170.568 96.1095 168.612 98.0058 166.656 99.3712Z" fill="#00171F"/>
<path d="M166.656 99.3712C165.002 98.7644 163.573 97.8162 162.369 96.5267C161.166 95.2372 160.376 93.6822 160 91.8617C161.354 90.5722 162.933 88.9414 164.739 86.9692C166.544 84.997 168.311 82.6455 170.041 79.9148C171.771 77.1082 173.2 73.9603 174.328 70.4711C175.532 66.9818 176.134 63.0754 176.134 58.7517V44.9843C176.81 44.7568 177.6 44.5671 178.503 44.4154C179.405 44.2637 180.346 44.1879 181.323 44.1879C183.053 44.1879 184.746 44.4534 186.4 44.9843V71.2675C186.4 77.8668 187.453 82.6834 189.559 85.7176C191.665 88.6759 194.975 90.155 199.488 90.155C210.243 90.155 215.621 82.2283 215.621 66.375V44.9843C216.223 44.7568 216.975 44.5671 217.878 44.4154C218.78 44.2637 219.72 44.1879 220.698 44.1879C222.503 44.1879 224.233 44.4534 225.888 44.9843V77.753C225.888 81.7732 226.49 84.9211 227.693 87.1967C228.972 89.3965 231.078 90.4963 234.011 90.4963C235.29 90.4963 236.155 91.0273 236.606 92.0893C237.057 93.1512 237.283 94.289 237.283 95.5027C237.283 96.7163 236.945 97.8162 236.268 98.8023C235.666 99.7884 234.651 100.281 233.221 100.281C226.001 100.281 221.112 97.0956 218.555 90.7239C216.449 93.8339 213.741 96.2233 210.431 97.892C207.122 99.485 203.211 100.281 198.698 100.281C188.168 100.281 181.286 95.351 178.052 85.49C176.397 88.5242 174.554 91.2549 172.523 93.6822C170.568 96.1095 168.612 98.0058 166.656 99.3712Z" fill="#EEEEEE"/>
<path d="M234.031 90.4963C235.611 90.4963 237.303 90.0033 239.108 89.0172C240.914 88.0311 242.606 86.5141 244.185 84.466C246.066 81.887 247.42 78.9287 248.247 75.5912C249.15 72.2536 249.714 68.8781 249.939 65.4647V44.9843C250.616 44.7568 251.406 44.5671 252.309 44.4154C253.211 44.2637 254.151 44.1879 255.129 44.1879C256.859 44.1879 258.551 44.4534 260.206 44.9843V77.753C260.206 81.7732 260.808 84.9211 262.011 87.1967C263.29 89.3965 265.396 90.4963 268.329 90.4963C269.608 90.4963 270.473 91.0273 270.924 92.0893C271.376 93.1512 271.601 94.289 271.601 95.5027C271.601 96.7163 271.263 97.8162 270.586 98.8023C269.984 99.7884 268.969 100.281 267.54 100.281C259.717 100.281 254.64 96.5646 252.309 89.131C251.256 90.8756 250.127 92.3548 248.924 93.5684C246.893 95.6164 244.524 97.2473 241.816 98.461C239.184 99.6746 236.326 100.281 233.242 100.281C232.189 100.281 231.399 99.7505 230.872 98.6885C230.271 97.7024 229.97 96.6025 229.97 95.3889C229.97 94.0994 230.308 92.9616 230.985 91.9755C231.587 90.9894 232.602 90.4963 234.031 90.4963ZM255.355 25.7555C253.249 25.7555 251.444 24.997 249.939 23.4799C248.435 21.9628 247.683 20.1424 247.683 18.0185C247.683 15.8187 248.397 13.9982 249.827 12.557C251.331 11.04 253.174 10.2814 255.355 10.2814C257.536 10.2814 259.341 11.04 260.77 12.557C262.275 13.9982 263.027 15.8187 263.027 18.0185C263.027 20.1424 262.275 21.9628 260.77 23.4799C259.341 24.997 257.536 25.7555 255.355 25.7555Z" fill="#00171F"/>
<path d="M234.031 90.4963C235.611 90.4963 237.303 90.0033 239.108 89.0172C240.914 88.0311 242.606 86.5141 244.185 84.466C246.066 81.887 247.42 78.9287 248.247 75.5912C249.15 72.2536 249.714 68.8781 249.939 65.4647V44.9843C250.616 44.7568 251.406 44.5671 252.309 44.4154C253.211 44.2637 254.151 44.1879 255.129 44.1879C256.859 44.1879 258.551 44.4534 260.206 44.9843V77.753C260.206 81.7732 260.808 84.9211 262.011 87.1967C263.29 89.3965 265.396 90.4963 268.329 90.4963C269.608 90.4963 270.473 91.0273 270.924 92.0893C271.376 93.1512 271.601 94.289 271.601 95.5027C271.601 96.7163 271.263 97.8162 270.586 98.8023C269.984 99.7884 268.969 100.281 267.54 100.281C259.717 100.281 254.64 96.5646 252.309 89.131C251.256 90.8756 250.127 92.3548 248.924 93.5684C246.893 95.6164 244.524 97.2473 241.816 98.461C239.184 99.6746 236.326 100.281 233.242 100.281C232.189 100.281 231.399 99.7505 230.872 98.6885C230.271 97.7024 229.97 96.6025 229.97 95.3889C229.97 94.0994 230.308 92.9616 230.985 91.9755C231.587 90.9894 232.602 90.4963 234.031 90.4963ZM255.355 25.7555C253.249 25.7555 251.444 24.997 249.939 23.4799C248.435 21.9628 247.683 20.1424 247.683 18.0185C247.683 15.8187 248.397 13.9982 249.827 12.557C251.331 11.04 253.174 10.2814 255.355 10.2814C257.536 10.2814 259.341 11.04 260.77 12.557C262.275 13.9982 263.027 15.8187 263.027 18.0185C263.027 20.1424 262.275 21.9628 260.77 23.4799C259.341 24.997 257.536 25.7555 255.355 25.7555Z" fill="#EEEEEE"/>
<path d="M268.297 90.4963C270.177 90.4963 272.321 89.9275 274.728 88.7896C277.21 87.6518 279.617 85.7176 281.948 82.9869C284.28 80.2561 286.198 76.5773 287.702 71.9502C289.206 67.2473 289.959 61.3687 289.959 54.3143V43.3914H281.61C281.083 42.1778 280.82 40.6607 280.82 38.8402C280.82 37.0197 281.083 35.5027 281.61 34.289H289.959V14.15C291.388 13.619 293.118 13.3535 295.148 13.3535C296.954 13.3535 298.683 13.619 300.338 14.15V34.289H317.149C317.75 35.5027 318.051 37.0197 318.051 38.8402C318.051 40.6607 317.75 42.1778 317.149 43.3914H300.338V79.1183C300.338 80.9388 300.489 82.7214 300.789 84.466C301.166 86.2106 301.842 87.6898 302.82 88.9034C303.798 90.0412 305.302 90.6101 307.333 90.6101C309.364 90.6101 311.169 90.0792 312.749 89.0172C314.403 87.8794 315.795 86.7795 316.923 85.7176C318.126 86.6278 319.217 87.7656 320.195 89.131C321.173 90.4964 321.774 91.8617 322 93.2271C321.323 94.0615 320.27 95.0475 318.841 96.1853C317.412 97.2473 315.682 98.1955 313.651 99.0299C311.62 99.8642 309.326 100.281 306.769 100.281C302.256 100.281 298.759 99.0298 296.277 96.5267C293.87 94.0235 292.29 90.7618 291.538 86.7416C288.379 91.3687 284.656 94.7821 280.369 96.9818C276.157 99.1816 271.869 100.281 267.507 100.281C266.529 100.281 265.739 99.7884 265.138 98.8023C264.536 97.8921 264.235 96.7543 264.235 95.3889C264.235 93.9477 264.574 92.7719 265.251 91.8617C265.927 90.9515 266.943 90.4963 268.297 90.4963Z" fill="#00171F"/>
<path d="M268.297 90.4963C270.177 90.4963 272.321 89.9275 274.728 88.7896C277.21 87.6518 279.617 85.7176 281.948 82.9869C284.28 80.2561 286.198 76.5773 287.702 71.9502C289.206 67.2473 289.959 61.3687 289.959 54.3143V43.3914H281.61C281.083 42.1778 280.82 40.6607 280.82 38.8402C280.82 37.0197 281.083 35.5027 281.61 34.289H289.959V14.15C291.388 13.619 293.118 13.3535 295.148 13.3535C296.954 13.3535 298.683 13.619 300.338 14.15V34.289H317.149C317.75 35.5027 318.051 37.0197 318.051 38.8402C318.051 40.6607 317.75 42.1778 317.149 43.3914H300.338V79.1183C300.338 80.9388 300.489 82.7214 300.789 84.466C301.166 86.2106 301.842 87.6898 302.82 88.9034C303.798 90.0412 305.302 90.6101 307.333 90.6101C309.364 90.6101 311.169 90.0792 312.749 89.0172C314.403 87.8794 315.795 86.7795 316.923 85.7176C318.126 86.6278 319.217 87.7656 320.195 89.131C321.173 90.4964 321.774 91.8617 322 93.2271C321.323 94.0615 320.27 95.0475 318.841 96.1853C317.412 97.2473 315.682 98.1955 313.651 99.0299C311.62 99.8642 309.326 100.281 306.769 100.281C302.256 100.281 298.759 99.0298 296.277 96.5267C293.87 94.0235 292.29 90.7618 291.538 86.7416C288.379 91.3687 284.656 94.7821 280.369 96.9818C276.157 99.1816 271.869 100.281 267.507 100.281C266.529 100.281 265.739 99.7884 265.138 98.8023C264.536 97.8921 264.235 96.7543 264.235 95.3889C264.235 93.9477 264.574 92.7719 265.251 91.8617C265.927 90.9515 266.943 90.4963 268.297 90.4963Z" fill="#EEEEEE"/>
</svg>
